<?xml version="1.0" encoding="UTF-8"?>
<!DOCTYPE svg PUBLIC "-//W3C//DTD SVG 1.1//EN" "http://www.w3.org/Graphics/SVG/1.1/DTD/svg11.dtd">
<svg xmlns="http://www.w3.org/2000/svg" version="1.1" width="80px" height="80px" style="shape-rendering:geometricPrecision; text-rendering:geometricPrecision; image-rendering:optimizeQuality; fill-rule:evenodd; clip-rule:evenodd" xmlns:xlink="http://www.w3.org/1999/xlink">
<g><path style="opacity:1" fill="#f5d700" d="M -0.5,-0.5 C 26.1667,-0.5 52.8333,-0.5 79.5,-0.5C 79.5,26.1667 79.5,52.8333 79.5,79.5C 52.8333,79.5 26.1667,79.5 -0.5,79.5C -0.5,52.8333 -0.5,26.1667 -0.5,-0.5 Z"/></g>
<g><path style="opacity:1" fill="#1c1102" d="M 26.5,27.5 C 27.5,27.5 28.5,27.5 29.5,27.5C 30.4063,31.1488 31.7396,34.6488 33.5,38C 32.5509,38.6172 31.7175,38.4506 31,37.5C 28.5347,29.6188 26.7014,29.9521 25.5,38.5C 24.448,38.6495 23.448,38.4828 22.5,38C 24.3296,34.6763 25.6629,31.1763 26.5,27.5 Z"/></g>
<g><path style="opacity:1" fill="#1c1102" d="M 48.5,27.5 C 49.5,27.5 50.5,27.5 51.5,27.5C 52.4063,31.1488 53.7396,34.6488 55.5,38C 54.5509,38.6172 53.7175,38.4506 53,37.5C 50.5347,29.6188 48.7014,29.9521 47.5,38.5C 46.448,38.6495 45.448,38.4828 44.5,38C 46.3296,34.6763 47.6629,31.1763 48.5,27.5 Z"/></g>
<g><path style="opacity:1" fill="#000000" d="M 6.5,34.5 C 10.9707,33.9106 14.9707,34.5772 18.5,36.5C 14.0293,37.0894 10.0293,36.4228 6.5,34.5 Z"/></g>
<g><path style="opacity:1" fill="#000000" d="M 59.5,34.5 C 63.9707,33.9106 67.9707,34.5772 71.5,36.5C 67.0293,37.0894 63.0293,36.4228 59.5,34.5 Z"/></g>
<g><path style="opacity:1" fill="#715900" d="M 6.5,34.5 C 10.0293,36.4228 14.0293,37.0894 18.5,36.5C 14.3656,37.4849 10.0323,37.8182 5.5,37.5C 5.26269,36.209 5.59603,35.209 6.5,34.5 Z"/></g>
<g><path style="opacity:1" fill="#715900" d="M 59.5,34.5 C 63.0293,36.4228 67.0293,37.0894 71.5,36.5C 67.3656,37.4849 63.0323,37.8182 58.5,37.5C 58.2627,36.209 58.596,35.209 59.5,34.5 Z"/></g>
<g><path style="opacity:1" fill="#000000" d="M 35.5,39.5 C 37.924,39.1924 40.2573,39.5258 42.5,40.5C 41.3333,40.8333 40.1667,41.1667 39,41.5C 37.3189,41.3917 36.1522,40.7251 35.5,39.5 Z"/></g>
<g><path style="opacity:1" fill="#000000" d="M 6.5,41.5 C 10.9707,40.9106 14.9707,41.5772 18.5,43.5C 14.0293,44.0894 10.0293,43.4228 6.5,41.5 Z"/></g>
<g><path style="opacity:1" fill="#000000" d="M 59.5,41.5 C 63.9707,40.9106 67.9707,41.5772 71.5,43.5C 67.0293,44.0894 63.0293,43.4228 59.5,41.5 Z"/></g>
<g><path style="opacity:1" fill="#715900" d="M 6.5,41.5 C 10.0293,43.4228 14.0293,44.0894 18.5,43.5C 14.3656,44.4849 10.0323,44.8182 5.5,44.5C 5.26269,43.209 5.59603,42.209 6.5,41.5 Z"/></g>
<g><path style="opacity:1" fill="#715900" d="M 59.5,41.5 C 63.0293,43.4228 67.0293,44.0894 71.5,43.5C 67.3656,44.4849 63.0323,44.8182 58.5,44.5C 58.2627,43.209 58.596,42.209 59.5,41.5 Z"/></g>
</svg>
